<svg width="692" height="86" viewBox="0 0 692 86" fill="none" xmlns="http://www.w3.org/2000/svg">
<rect x="0.5" y="50.7565" width="35.2579" height="35.0909" rx="10" fill="#81BECE"/>
<rect x="3.80542" y="54.0462" width="13.2217" height="13.1591" rx="5" fill="#012E4A"/>
<rect x="3.80542" y="69.3985" width="13.2217" height="13.1591" rx="5" fill="#012E4A"/>
<rect x="19.2307" y="69.3985" width="13.2217" height="13.1591" rx="5" fill="#012E4A"/>
<rect x="19.2307" y="54.0462" width="13.2217" height="13.1591" rx="5" fill="#012E4A"/>
<path d="M28.2265 27.4327C22.6498 17.8192 25.9407 5.53719 35.577 -6.50742e-07L69.5517 58.5673C75.1285 68.1808 71.8376 80.4628 62.2012 86L28.2265 27.4327Z" fill="#81BECE"/>
<path d="M59.0772 27.4327C53.5004 17.8192 56.7913 5.53719 66.4277 -5.1014e-08L100.402 58.5673C105.979 68.1808 102.688 80.4628 93.0519 86L59.0772 27.4327Z" fill="#81BECE"/>
<path d="M156.404 24.9C156.756 24.9 157.06 25.028 157.316 25.284C157.572 25.54 157.7 25.844 157.7 26.196V57.204C157.7 57.556 157.572 57.86 157.316 58.116C157.06 58.372 156.756 58.5 156.404 58.5H146.996C146.644 58.5 146.34 58.372 146.084 58.116C145.828 57.86 145.7 57.556 145.7 57.204V35.268H136.1V57.204C136.1 57.556 135.972 57.86 135.716 58.116C135.46 58.372 135.156 58.5 134.804 58.5H125.396C125.044 58.5 124.74 58.388 124.484 58.164C124.228 57.908 124.1 57.588 124.1 57.204V26.196C124.1 25.844 124.228 25.54 124.484 25.284C124.74 25.028 125.044 24.9 125.396 24.9H156.404ZM164.401 58.98C164.049 58.98 163.729 58.852 163.441 58.596C163.185 58.34 163.057 58.036 163.057 57.684V50.004C163.057 49.652 163.185 49.348 163.441 49.092C163.697 48.836 164.001 48.708 164.353 48.708C165.505 48.708 166.385 47.364 166.993 44.676C167.601 41.988 167.905 38.1 167.905 33.012V26.196C167.905 25.844 168.033 25.54 168.289 25.284C168.545 25.028 168.849 24.9 169.201 24.9H196.465C196.817 24.9 197.121 25.028 197.377 25.284C197.633 25.54 197.761 25.844 197.761 26.196V57.204C197.761 57.556 197.633 57.86 197.377 58.116C197.121 58.372 196.817 58.5 196.465 58.5H187.537C187.185 58.5 186.881 58.372 186.625 58.116C186.369 57.86 186.241 57.556 186.241 57.204V35.22H178.945V37.668C178.945 45.028 177.713 50.42 175.249 53.844C172.785 57.268 169.169 58.98 164.401 58.98ZM216.079 24.9C216.431 24.9 216.735 25.028 216.991 25.284C217.247 25.54 217.375 25.844 217.375 26.196V41.748L227.839 25.86C228.319 25.22 228.943 24.9 229.711 24.9H237.487C237.839 24.9 238.143 25.028 238.399 25.284C238.655 25.54 238.783 25.844 238.783 26.196V57.204C238.783 57.556 238.655 57.86 238.399 58.116C238.143 58.372 237.839 58.5 237.487 58.5H228.559C228.207 58.5 227.903 58.372 227.647 58.116C227.391 57.86 227.263 57.556 227.263 57.204V42.708L216.799 57.492C216.287 58.164 215.647 58.5 214.879 58.5H207.151C206.799 58.5 206.495 58.372 206.239 58.116C205.983 57.86 205.855 57.556 205.855 57.204V26.196C205.855 25.844 205.983 25.54 206.239 25.284C206.495 25.028 206.799 24.9 207.151 24.9H216.079ZM279.804 24.9C280.156 24.9 280.46 25.028 280.716 25.284C280.972 25.54 281.1 25.844 281.1 26.196V33.924C281.1 34.276 280.972 34.58 280.716 34.836C280.46 35.092 280.156 35.22 279.804 35.22H269.484V57.204C269.484 57.556 269.356 57.86 269.1 58.116C268.844 58.372 268.54 58.5 268.188 58.5H258.3C257.948 58.5 257.644 58.372 257.388 58.116C257.132 57.86 257.004 57.556 257.004 57.204V35.22H246.684C246.332 35.22 246.028 35.092 245.772 34.836C245.516 34.58 245.388 34.276 245.388 33.924V26.196C245.388 25.844 245.516 25.54 245.772 25.284C246.028 25.028 246.332 24.9 246.684 24.9H279.804ZM323.849 56.82C323.977 57.012 324.041 57.22 324.041 57.444C324.041 57.732 323.929 57.988 323.705 58.212C323.513 58.404 323.273 58.5 322.985 58.5H310.601C309.865 58.5 309.289 58.244 308.873 57.732L301.481 47.028H300.041V57.204C300.041 57.556 299.913 57.86 299.657 58.116C299.401 58.372 299.097 58.5 298.745 58.5H288.857C288.505 58.5 288.201 58.372 287.945 58.116C287.689 57.86 287.561 57.556 287.561 57.204V26.196C287.561 25.844 287.689 25.54 287.945 25.284C288.201 25.028 288.505 24.9 288.857 24.9H298.745C299.097 24.9 299.401 25.028 299.657 25.284C299.913 25.54 300.041 25.844 300.041 26.196V36.084H301.097L308.105 25.716C308.585 25.172 309.177 24.9 309.881 24.9H321.449C321.737 24.9 321.977 25.012 322.169 25.236C322.393 25.428 322.505 25.668 322.505 25.956C322.505 26.212 322.425 26.436 322.265 26.628L310.889 40.5L323.849 56.82ZM337.894 56.868C337.478 57.956 336.758 58.5 335.734 58.5H326.662C326.374 58.5 326.118 58.404 325.894 58.212C325.702 57.988 325.606 57.732 325.606 57.444L325.654 57.156L336.118 26.484C336.246 26.068 336.486 25.7 336.838 25.38C337.19 25.06 337.67 24.9 338.278 24.9H351.622C352.23 24.9 352.71 25.06 353.062 25.38C353.414 25.7 353.654 26.068 353.782 26.484L364.246 57.156L364.294 57.444C364.294 57.732 364.182 57.988 363.958 58.212C363.766 58.404 363.526 58.5 363.238 58.5H354.166C353.142 58.5 352.422 57.956 352.006 56.868L350.806 53.508H339.094L337.894 56.868ZM344.95 34.164L341.542 44.148H348.358L344.95 34.164ZM419.985 24.9C420.337 24.9 420.641 25.028 420.897 25.284C421.153 25.54 421.281 25.844 421.281 26.196V41.748L431.745 25.86C432.225 25.22 432.849 24.9 433.617 24.9H441.393C441.745 24.9 442.049 25.028 442.305 25.284C442.561 25.54 442.689 25.844 442.689 26.196V57.204C442.689 57.556 442.561 57.86 442.305 58.116C442.049 58.372 441.745 58.5 441.393 58.5H432.465C432.113 58.5 431.809 58.372 431.553 58.116C431.297 57.86 431.169 57.556 431.169 57.204V42.708L420.705 57.492C420.193 58.164 419.553 58.5 418.785 58.5H411.057C410.705 58.5 410.401 58.372 410.145 58.116C409.889 57.86 409.761 57.556 409.761 57.204V26.196C409.761 25.844 409.889 25.54 410.145 25.284C410.401 25.028 410.705 24.9 411.057 24.9H419.985ZM524.491 24.9C524.843 24.9 525.147 25.028 525.403 25.284C525.659 25.54 525.787 25.844 525.787 26.196V33.924C525.787 34.276 525.659 34.58 525.403 34.836C525.147 35.092 524.843 35.22 524.491 35.22H514.171V57.204C514.171 57.556 514.043 57.86 513.787 58.116C513.531 58.372 513.227 58.5 512.875 58.5H502.987C502.635 58.5 502.331 58.372 502.075 58.116C501.819 57.86 501.691 57.556 501.691 57.204V35.22H491.371C491.019 35.22 490.715 35.092 490.459 34.836C490.203 34.58 490.075 34.276 490.075 33.924V26.196C490.075 25.844 490.203 25.54 490.459 25.284C490.715 25.028 491.019 24.9 491.371 24.9H524.491ZM566.569 44.628C566.569 49.524 564.937 53.14 561.673 55.476C558.441 57.812 554.121 58.98 548.713 58.98C543.305 58.98 538.969 57.812 535.705 55.476C532.473 53.14 530.857 49.492 530.857 44.532V38.868C530.857 35.604 531.625 32.9 533.161 30.756C534.729 28.58 536.857 26.98 539.545 25.956C542.233 24.932 545.289 24.42 548.713 24.42C552.137 24.42 555.177 24.932 557.833 25.956C560.521 26.98 562.649 28.564 564.217 30.708C565.785 32.852 566.569 35.54 566.569 38.772V44.628ZM543.817 45.54C543.817 46.852 544.249 47.86 545.113 48.564C546.009 49.268 547.209 49.62 548.713 49.62C550.217 49.62 551.401 49.268 552.265 48.564C553.161 47.828 553.609 46.804 553.609 45.492V37.908C553.609 36.596 553.161 35.588 552.265 34.884C551.401 34.148 550.217 33.78 548.713 33.78C547.209 33.78 546.009 34.132 545.113 34.836C544.249 35.54 543.817 36.548 543.817 37.86V45.54ZM594.87 58.5C594.518 58.5 594.214 58.372 593.958 58.116C593.702 57.86 593.574 57.556 593.574 57.204V48.612C591.43 49.572 588.678 50.052 585.318 50.052C580.902 50.052 577.606 48.948 575.43 46.74C573.286 44.5 572.214 41.044 572.214 36.372V26.196C572.214 25.844 572.342 25.54 572.598 25.284C572.854 25.028 573.158 24.9 573.51 24.9H583.398C583.75 24.9 584.054 25.028 584.31 25.284C584.566 25.54 584.694 25.844 584.694 26.196V35.892C584.694 37.012 585.014 37.828 585.654 38.34C586.326 38.852 587.398 39.108 588.87 39.108C589.958 39.108 591.014 38.98 592.038 38.724C593.062 38.468 593.574 38.18 593.574 37.86V26.196C593.574 25.844 593.702 25.54 593.958 25.284C594.214 25.028 594.518 24.9 594.87 24.9H604.758C605.11 24.9 605.414 25.028 605.67 25.284C605.926 25.54 606.054 25.844 606.054 26.196V57.204C606.054 57.556 605.926 57.86 605.67 58.116C605.414 58.372 605.11 58.5 604.758 58.5H594.87ZM650.099 56.82C650.227 57.012 650.291 57.22 650.291 57.444C650.291 57.732 650.179 57.988 649.955 58.212C649.763 58.404 649.523 58.5 649.235 58.5H636.851C636.115 58.5 635.539 58.244 635.123 57.732L627.731 47.028H626.291V57.204C626.291 57.556 626.163 57.86 625.907 58.116C625.651 58.372 625.347 58.5 624.995 58.5H615.107C614.755 58.5 614.451 58.372 614.195 58.116C613.939 57.86 613.811 57.556 613.811 57.204V26.196C613.811 25.844 613.939 25.54 614.195 25.284C614.451 25.028 614.755 24.9 615.107 24.9H624.995C625.347 24.9 625.651 25.028 625.907 25.284C626.163 25.54 626.291 25.844 626.291 26.196V36.084H627.347L634.355 25.716C634.835 25.172 635.427 24.9 636.131 24.9H647.699C647.987 24.9 648.227 25.012 648.419 25.236C648.643 25.428 648.755 25.668 648.755 25.956C648.755 26.212 648.675 26.436 648.515 26.628L637.139 40.5L650.099 56.82ZM664.144 56.868C663.728 57.956 663.008 58.5 661.984 58.5H652.912C652.624 58.5 652.368 58.404 652.144 58.212C651.952 57.988 651.856 57.732 651.856 57.444L651.904 57.156L662.368 26.484C662.496 26.068 662.736 25.7 663.088 25.38C663.44 25.06 663.92 24.9 664.528 24.9H677.872C678.48 24.9 678.96 25.06 679.312 25.38C679.664 25.7 679.904 26.068 680.032 26.484L690.496 57.156L690.544 57.444C690.544 57.732 690.432 57.988 690.208 58.212C690.016 58.404 689.776 58.5 689.488 58.5H680.416C679.392 58.5 678.672 57.956 678.256 56.868L677.056 53.508H665.344L664.144 56.868ZM671.2 34.164L667.792 44.148H674.608L671.2 34.164Z" fill="#81BECE"/>
</svg>
